<?xml version="1.0" encoding="UTF-8"?>
<svg xmlns="http://www.w3.org/2000/svg" xmlns:xlink="http://www.w3.org/1999/xlink" width="15pt" height="15pt" viewBox="0 0 15 15" version="1.1">
<g id="surface1">
<path style=" stroke:none;fill-rule:nonzero;fill:rgb(90.196078%,22.352941%,31.372549%);fill-opacity:1;" d="M 7.703125 9.570312 L 9.566406 7.703125 L 14.996094 13.132812 L 13.132812 14.996094 Z M 7.703125 9.570312 "/>
<path style=" stroke:none;fill-rule:nonzero;fill:rgb(36.078431%,43.921569%,60%);fill-opacity:1;" d="M 5.277344 0 C 2.367188 0 0.00390625 2.363281 0.00390625 5.273438 C 0.00390625 8.183594 2.367188 10.546875 5.277344 10.546875 C 8.1875 10.546875 10.550781 8.183594 10.550781 5.273438 C 10.550781 2.363281 8.1875 0 5.277344 0 Z M 5.277344 0 "/>
<path style=" stroke:none;fill-rule:nonzero;fill:rgb(25.098039%,33.333333%,50.196078%);fill-opacity:1;" d="M 10.550781 5.273438 C 10.550781 8.183594 8.1875 10.546875 5.277344 10.546875 L 5.277344 0 C 8.1875 0 10.550781 2.363281 10.550781 5.273438 Z M 10.550781 5.273438 "/>
<path style=" stroke:none;fill-rule:nonzero;fill:rgb(90.196078%,94.901961%,100%);fill-opacity:1;" d="M 9.671875 5.273438 C 9.671875 7.699219 7.703125 9.667969 5.277344 9.667969 C 2.847656 9.667969 0.882812 7.699219 0.882812 5.273438 C 0.882812 2.847656 2.847656 0.878906 5.277344 0.878906 C 7.703125 0.878906 9.671875 2.847656 9.671875 5.273438 Z M 9.671875 5.273438 "/>
<path style=" stroke:none;fill-rule:nonzero;fill:rgb(80%,90.196078%,100%);fill-opacity:1;" d="M 9.671875 5.273438 C 9.671875 7.699219 7.703125 9.667969 5.277344 9.667969 L 5.277344 0.878906 C 7.703125 0.878906 9.671875 2.847656 9.671875 5.273438 Z M 9.671875 5.273438 "/>
<path style=" stroke:none;fill-rule:nonzero;fill:rgb(90.196078%,22.352941%,31.372549%);fill-opacity:1;" d="M 4.835938 1.757812 L 5.714844 1.757812 L 5.714844 3.078125 L 4.835938 3.078125 Z M 4.835938 1.757812 "/>
<path style=" stroke:none;fill-rule:nonzero;fill:rgb(90.196078%,22.352941%,31.372549%);fill-opacity:1;" d="M 4.835938 7.46875 L 5.714844 7.46875 L 5.714844 8.789062 L 4.835938 8.789062 Z M 4.835938 7.46875 "/>
<path style=" stroke:none;fill-rule:nonzero;fill:rgb(90.196078%,22.352941%,31.372549%);fill-opacity:1;" d="M 1.761719 4.835938 L 3.078125 4.835938 L 3.078125 5.710938 L 1.761719 5.710938 Z M 1.761719 4.835938 "/>
<path style=" stroke:none;fill-rule:nonzero;fill:rgb(68.235294%,14.509804%,21.960784%);fill-opacity:1;" d="M 7.472656 4.835938 L 8.792969 4.835938 L 8.792969 5.710938 L 7.472656 5.710938 Z M 7.472656 4.835938 "/>
<path style=" stroke:none;fill-rule:nonzero;fill:rgb(90.196078%,22.352941%,31.372549%);fill-opacity:1;" d="M 2.480469 7.449219 L 3.410156 6.515625 L 4.03125 7.136719 L 3.101562 8.070312 Z M 2.480469 7.449219 "/>
<path style=" stroke:none;fill-rule:nonzero;fill:rgb(68.235294%,14.509804%,21.960784%);fill-opacity:1;" d="M 6.519531 3.410156 L 7.449219 2.476562 L 8.070312 3.097656 L 7.140625 4.03125 Z M 6.519531 3.410156 "/>
<path style=" stroke:none;fill-rule:nonzero;fill:rgb(68.235294%,14.509804%,21.960784%);fill-opacity:1;" d="M 6.519531 7.136719 L 7.140625 6.515625 L 8.070312 7.449219 L 7.449219 8.070312 Z M 6.519531 7.136719 "/>
<path style=" stroke:none;fill-rule:nonzero;fill:rgb(90.196078%,22.352941%,31.372549%);fill-opacity:1;" d="M 2.480469 3.097656 L 3.101562 2.476562 L 4.03125 3.410156 L 3.410156 4.03125 Z M 2.480469 3.097656 "/>
<path style=" stroke:none;fill-rule:nonzero;fill:rgb(68.235294%,14.509804%,21.960784%);fill-opacity:1;" d="M 5.277344 1.757812 L 5.714844 1.757812 L 5.714844 3.078125 L 5.277344 3.078125 Z M 5.277344 1.757812 "/>
<path style=" stroke:none;fill-rule:nonzero;fill:rgb(68.235294%,14.509804%,21.960784%);fill-opacity:1;" d="M 5.277344 7.46875 L 5.714844 7.46875 L 5.714844 8.789062 L 5.277344 8.789062 Z M 5.277344 7.46875 "/>
<path style=" stroke:none;fill-rule:nonzero;fill:rgb(100%,50.196078%,40%);fill-opacity:1;" d="M 5.277344 2.636719 C 3.824219 2.636719 2.640625 3.824219 2.640625 5.273438 C 2.640625 6.722656 3.824219 7.910156 5.277344 7.910156 C 6.726562 7.910156 7.914062 6.722656 7.914062 5.273438 C 7.914062 3.824219 6.726562 2.636719 5.277344 2.636719 Z M 5.277344 2.636719 "/>
<path style=" stroke:none;fill-rule:nonzero;fill:rgb(90.196078%,22.352941%,31.372549%);fill-opacity:1;" d="M 7.914062 5.273438 C 7.914062 6.722656 6.726562 7.910156 5.277344 7.910156 L 5.277344 2.636719 C 6.726562 2.636719 7.914062 3.824219 7.914062 5.273438 Z M 7.914062 5.273438 "/>
<path style=" stroke:none;fill-rule:nonzero;fill:rgb(68.235294%,14.509804%,21.960784%);fill-opacity:1;" d="M 4.398438 4.394531 L 5.277344 4.394531 L 5.277344 5.273438 L 4.398438 5.273438 Z M 4.398438 4.394531 "/>
</g>
</svg>
