<?xml version="1.0" encoding="UTF-8"?>
<svg xmlns="http://www.w3.org/2000/svg" xmlns:xlink="http://www.w3.org/1999/xlink" width="20pt" height="20pt" viewBox="0 0 20 20" version="1.1">
<g id="surface1">
<path style=" stroke:none;fill-rule:nonzero;fill:rgb(100%,43.921569%,35.686275%);fill-opacity:1;" d="M 8.449219 6.050781 L 8.738281 4.945312 L 8.316406 4.800781 L 7.484375 3.53125 L 8 3.40625 L 7.738281 2.941406 L 8.5 1.375 L 7.882812 1 L 6.484375 1.074219 L 4.765625 0.320312 L 3.875 0.851562 L 4.476562 1.378906 L 4.507812 2.621094 L 5.480469 3.679688 L 4.691406 5.097656 L 4.6875 5.355469 L 3.703125 6.433594 L 6.5625 6.859375 L 9.34375 6.433594 Z M 8.449219 6.050781 "/>
<path style=" stroke:none;fill-rule:nonzero;fill:rgb(25.882353%,64.705882%,33.333333%);fill-opacity:1;" d="M 7.476562 12.503906 L 4.222656 12.933594 L 5.054688 15.179688 L 6.71875 19.679688 L 7.363281 19.433594 L 7.519531 19.125 L 7.765625 18.828125 L 8.316406 18.164062 L 8.605469 16.527344 L 8.417969 15.960938 L 8.78125 14.863281 L 9.1875 14.613281 L 9.566406 14.570312 L 10 13.980469 L 10.351562 13.832031 L 10.863281 13.316406 L 11.023438 12.933594 Z M 7.476562 12.503906 "/>
<path style=" stroke:none;fill-rule:nonzero;fill:rgb(25.882353%,45.490196%,31.764706%);fill-opacity:1;" d="M 5.054688 15.179688 L 6.71875 19.679688 L 7.363281 19.433594 L 7.519531 19.125 L 7.765625 18.828125 L 8.316406 18.164062 L 8.605469 16.527344 L 8.417969 15.960938 L 8.78125 14.863281 L 9.1875 14.613281 L 9.566406 14.570312 L 10 13.980469 L 10.351562 13.832031 L 10.863281 13.316406 L 11.023438 12.933594 L 8.761719 12.933594 C 7.738281 13.957031 6.46875 14.738281 5.054688 15.179688 Z M 5.054688 15.179688 "/>
<path style=" stroke:none;fill-rule:nonzero;fill:rgb(100%,43.921569%,35.686275%);fill-opacity:1;" d="M 16.175781 10.800781 L 16.152344 10.769531 L 16.148438 10.804688 Z M 16.175781 10.800781 "/>
<path style=" stroke:none;fill-rule:nonzero;fill:rgb(81.960784%,81.960784%,81.960784%);fill-opacity:1;" d="M 18.363281 6.433594 L 18.015625 5.917969 L 16.804688 5.953125 L 16.644531 6.191406 L 16.269531 6.433594 L 15.332031 7.03125 L 15.277344 7.617188 L 14.382812 7.617188 L 13.335938 6.761719 L 12.808594 7.910156 L 11.378906 7.300781 C 11.195312 9.492188 10.230469 11.464844 8.761719 12.933594 L 11.023438 12.933594 L 11.101562 12.75 L 12.339844 12.070312 L 12.414062 11.484375 L 13.0625 10.984375 L 13.78125 11.128906 L 13.160156 8.847656 L 14.246094 8.398438 L 14.851562 8.789062 L 15.71875 8.886719 L 15.039062 9.890625 L 15.464844 9.871094 L 16.152344 10.769531 L 16.359375 9.480469 L 16.953125 9.59375 L 17.140625 8.417969 L 17.34375 8.148438 L 17.398438 7.757812 L 18.53125 7.363281 L 18.640625 6.839844 Z M 18.363281 6.433594 "/>
<path style=" stroke:none;fill-rule:nonzero;fill:rgb(25.882353%,64.705882%,33.333333%);fill-opacity:1;" d="M 8.761719 12.933594 L 4.222656 12.933594 L 5.054688 15.179688 C 6.46875 14.738281 7.738281 13.957031 8.761719 12.933594 Z M 8.761719 12.933594 "/>
<path style=" stroke:none;fill-rule:nonzero;fill:rgb(90.196078%,90.196078%,90.196078%);fill-opacity:1;" d="M 3.703125 6.433594 L 3.277344 6.902344 L 2.480469 6.644531 L 2.148438 7.617188 L 2.378906 7.792969 L 2.878906 8.816406 L 2.886719 9.308594 L 1.359375 9.859375 L 2.328125 10.332031 L 1.804688 10.605469 L 2.296875 11.335938 L 3.089844 11.726562 L 3.945312 10.605469 L 3.929688 11.1875 L 4.21875 11.875 L 4.085938 12.566406 L 4.222656 12.933594 L 8.761719 12.933594 C 10.230469 11.464844 11.195312 9.492188 11.378906 7.300781 L 9.34375 6.433594 Z M 3.703125 6.433594 "/>
<path style=" stroke:none;fill-rule:nonzero;fill:rgb(0%,0%,0%);fill-opacity:1;" d="M 18.90625 6.660156 L 18.28125 5.738281 C 18.222656 5.648438 18.117188 5.59375 18.007812 5.597656 L 16.796875 5.628906 C 16.695312 5.632812 16.597656 5.6875 16.539062 5.773438 L 16.414062 5.957031 L 15.160156 6.761719 C 15.078125 6.816406 15.023438 6.902344 15.011719 7 L 14.984375 7.292969 L 14.5 7.292969 L 13.539062 6.511719 C 13.464844 6.449219 13.363281 6.425781 13.265625 6.449219 C 13.167969 6.472656 13.085938 6.539062 13.046875 6.628906 L 12.648438 7.492188 L 8.828125 5.863281 L 9.046875 5.027344 C 9.089844 4.863281 9 4.695312 8.839844 4.640625 L 8.523438 4.535156 L 8.003906 3.734375 L 8.078125 3.71875 C 8.175781 3.695312 8.257812 3.625 8.296875 3.53125 C 8.335938 3.441406 8.332031 3.332031 8.28125 3.246094 L 8.101562 2.929688 L 8.789062 1.515625 C 8.863281 1.363281 8.808594 1.183594 8.667969 1.097656 L 8.046875 0.726562 C 7.992188 0.691406 7.929688 0.675781 7.863281 0.679688 L 6.542969 0.75 L 4.894531 0.0273438 C 4.796875 -0.015625 4.6875 -0.0078125 4.597656 0.046875 L 3.710938 0.578125 C 3.621094 0.628906 3.566406 0.722656 3.554688 0.824219 C 3.546875 0.925781 3.585938 1.027344 3.664062 1.09375 L 4.160156 1.53125 L 4.1875 2.628906 C 4.1875 2.707031 4.21875 2.78125 4.269531 2.839844 L 5.085938 3.726562 L 4.410156 4.945312 C 4.382812 4.988281 4.371094 5.039062 4.371094 5.09375 L 4.367188 5.226562 L 3.179688 6.53125 L 2.578125 6.339844 C 2.410156 6.285156 2.234375 6.375 2.175781 6.542969 L 1.84375 7.511719 C 1.800781 7.644531 1.84375 7.789062 1.953125 7.871094 L 2.125 8.003906 L 2.558594 8.890625 L 2.5625 9.085938 L 1.25 9.554688 C 1.128906 9.597656 1.046875 9.710938 1.039062 9.839844 C 1.03125 9.96875 1.101562 10.089844 1.21875 10.148438 L 1.617188 10.34375 C 1.5625 10.382812 1.519531 10.445312 1.496094 10.511719 C 1.46875 10.605469 1.484375 10.703125 1.539062 10.785156 L 2.027344 11.515625 C 2.058594 11.5625 2.101562 11.597656 2.152344 11.625 L 2.949219 12.015625 C 3.085938 12.082031 3.253906 12.042969 3.34375 11.921875 L 3.695312 11.464844 L 3.882812 11.910156 L 3.769531 12.503906 C 3.761719 12.5625 3.765625 12.621094 3.785156 12.675781 L 6.417969 19.789062 C 6.464844 19.914062 6.585938 20 6.71875 20 C 6.757812 20 6.796875 19.992188 6.832031 19.980469 L 7.476562 19.734375 C 7.550781 19.703125 7.613281 19.648438 7.648438 19.578125 L 7.789062 19.300781 L 8.011719 19.03125 L 8.5625 18.371094 C 8.597656 18.328125 8.621094 18.277344 8.632812 18.222656 L 8.921875 16.582031 C 8.933594 16.53125 8.929688 16.476562 8.910156 16.425781 L 8.757812 15.960938 L 9.050781 15.074219 L 9.296875 14.925781 L 9.601562 14.886719 C 9.691406 14.878906 9.773438 14.832031 9.824219 14.757812 L 10.203125 14.242188 C 10.332031 14.1875 10.484375 14.148438 10.585938 14.050781 C 10.707031 13.9375 10.824219 13.8125 10.941406 13.695312 C 11.035156 13.601562 11.125 13.523438 11.179688 13.398438 C 11.238281 13.257812 11.296875 13.117188 11.351562 12.976562 L 12.496094 12.351562 C 12.585938 12.300781 12.648438 12.210938 12.660156 12.109375 L 12.714844 11.65625 L 13.144531 11.328125 L 13.71875 11.445312 C 13.824219 11.464844 13.9375 11.429688 14.015625 11.347656 C 14.089844 11.265625 14.117188 11.152344 14.089844 11.042969 L 13.542969 9.035156 L 14.214844 8.757812 L 14.675781 9.058594 C 14.71875 9.085938 14.765625 9.105469 14.816406 9.109375 L 15.15625 9.148438 L 14.773438 9.710938 C 14.707031 9.8125 14.699219 9.941406 14.761719 10.050781 C 14.820312 10.15625 14.933594 10.21875 15.054688 10.210938 L 15.308594 10.199219 L 15.890625 10.992188 C 15.964844 11.097656 16.097656 11.148438 16.222656 11.117188 C 16.351562 11.085938 16.445312 10.984375 16.464844 10.855469 L 16.625 9.859375 L 16.894531 9.910156 C 16.980469 9.925781 17.066406 9.90625 17.140625 9.855469 C 17.210938 9.808594 17.257812 9.730469 17.273438 9.644531 L 17.445312 8.546875 L 17.601562 8.34375 C 17.636719 8.300781 17.65625 8.246094 17.664062 8.191406 L 17.691406 7.996094 L 18.636719 7.664062 C 18.742188 7.628906 18.820312 7.539062 18.84375 7.429688 L 18.957031 6.90625 C 18.972656 6.820312 18.957031 6.730469 18.90625 6.660156 Z M 18.253906 7.117188 L 17.292969 7.453125 C 17.175781 7.492188 17.09375 7.59375 17.078125 7.714844 L 17.039062 8.023438 L 16.886719 8.222656 C 16.855469 8.265625 16.832031 8.316406 16.824219 8.367188 L 16.6875 9.214844 L 16.417969 9.164062 C 16.332031 9.148438 16.246094 9.167969 16.175781 9.214844 C 16.101562 9.265625 16.054688 9.34375 16.042969 9.429688 L 15.953125 9.992188 L 15.722656 9.679688 C 15.699219 9.644531 15.667969 9.617188 15.628906 9.59375 L 15.988281 9.066406 C 16.050781 8.972656 16.058594 8.855469 16.011719 8.75 C 15.964844 8.648438 15.867188 8.578125 15.753906 8.566406 L 14.960938 8.480469 L 14.421875 8.128906 C 14.335938 8.070312 14.222656 8.058594 14.125 8.101562 L 13.035156 8.550781 C 12.886719 8.613281 12.804688 8.777344 12.847656 8.933594 L 13.332031 10.710938 L 13.125 10.671875 C 13.035156 10.652344 12.941406 10.675781 12.867188 10.730469 L 12.21875 11.226562 C 12.148438 11.28125 12.105469 11.359375 12.09375 11.445312 L 12.042969 11.867188 L 10.945312 12.46875 C 10.882812 12.503906 10.832031 12.558594 10.804688 12.628906 L 10.59375 13.136719 L 10.167969 13.558594 L 9.875 13.683594 C 9.820312 13.703125 9.773438 13.742188 9.738281 13.789062 L 9.390625 14.265625 L 9.152344 14.292969 C 9.105469 14.300781 9.058594 14.316406 9.019531 14.339844 L 8.613281 14.589844 C 8.550781 14.628906 8.5 14.691406 8.476562 14.761719 L 8.113281 15.859375 C 8.09375 15.925781 8.09375 15.996094 8.113281 16.0625 L 8.277344 16.550781 L 8.015625 18.023438 L 7.515625 18.625 L 7.273438 18.921875 C 7.257812 18.9375 7.246094 18.957031 7.234375 18.976562 L 7.132812 19.175781 L 6.90625 19.261719 L 4.417969 12.539062 L 4.535156 11.933594 C 4.546875 11.871094 4.539062 11.808594 4.515625 11.75 L 4.253906 11.128906 L 4.265625 10.613281 C 4.269531 10.476562 4.183594 10.347656 4.054688 10.300781 C 3.921875 10.253906 3.773438 10.300781 3.691406 10.410156 L 2.996094 11.320312 L 2.515625 11.085938 L 2.292969 10.710938 L 2.476562 10.617188 C 2.582031 10.5625 2.648438 10.449219 2.648438 10.328125 C 2.648438 10.207031 2.578125 10.097656 2.46875 10.042969 L 2.316406 9.96875 L 2.183594 9.902344 L 2.996094 9.613281 C 3.125 9.566406 3.210938 9.441406 3.207031 9.304688 L 3.199219 8.808594 C 3.199219 8.761719 3.1875 8.714844 3.167969 8.671875 L 2.667969 7.652344 C 2.648438 7.609375 2.613281 7.570312 2.574219 7.539062 L 2.527344 7.5 L 2.683594 7.046875 L 3.179688 7.207031 C 3.300781 7.246094 3.433594 7.210938 3.515625 7.117188 L 4.925781 5.570312 C 4.976562 5.511719 5.007812 5.4375 5.007812 5.359375 L 5.011719 5.183594 L 5.757812 3.835938 C 5.828125 3.714844 5.808594 3.5625 5.714844 3.460938 L 4.824219 2.492188 L 4.796875 1.371094 C 4.796875 1.28125 4.757812 1.199219 4.6875 1.140625 L 4.417969 0.902344 L 4.785156 0.683594 L 6.351562 1.367188 C 6.398438 1.390625 6.449219 1.398438 6.5 1.394531 L 7.800781 1.328125 L 8.082031 1.496094 L 7.449219 2.800781 C 7.402344 2.894531 7.40625 3.007812 7.457031 3.101562 L 7.511719 3.195312 L 7.410156 3.21875 C 7.308594 3.246094 7.226562 3.316406 7.1875 3.414062 C 7.148438 3.511719 7.160156 3.621094 7.214844 3.707031 L 8.046875 4.976562 C 8.085938 5.039062 8.144531 5.082031 8.210938 5.105469 L 8.351562 5.152344 L 8.136719 5.96875 C 8.097656 6.121094 8.175781 6.28125 8.320312 6.34375 L 12.683594 8.207031 C 12.839844 8.273438 13.027344 8.203125 13.101562 8.046875 L 13.457031 7.273438 L 14.183594 7.863281 C 14.238281 7.910156 14.3125 7.9375 14.382812 7.9375 L 15.277344 7.9375 C 15.445312 7.9375 15.582031 7.808594 15.597656 7.644531 L 15.640625 7.21875 L 16.820312 6.460938 C 16.855469 6.4375 16.886719 6.40625 16.914062 6.371094 L 16.980469 6.269531 L 17.847656 6.246094 L 18.296875 6.90625 Z M 18.253906 7.117188 "/>
</g>
</svg>
