<?xml version="1.0" encoding="utf-8"?>
<!-- Generator: Adobe Illustrator 24.1.1, SVG Export Plug-In . SVG Version: 6.00 Build 0)  -->
<svg version="1.1" id="Layer_1" xmlns="http://www.w3.org/2000/svg" xmlns:xlink="http://www.w3.org/1999/xlink" x="0px" y="0px"
	 viewBox="0 0 50 50" style="enable-background:new 0 0 50 50;" xml:space="preserve">
<style type="text/css">
	.st0{fill:url(#SVGID_1_);}
	.st1{fill:none;stroke:#000000;stroke-width:0.4;}
	.st2{stroke:#A1A1A1;stroke-width:0.3;stroke-miterlimit:10;}
	.st3{stroke:#A1A1A1;stroke-width:0.2;stroke-miterlimit:10;}
	.st4{fill:url(#SVGID_2_);}
	.st5{fill:none;stroke:#A1A1A1;stroke-width:0.14;}
	.st6{stroke:#A1A1A1;stroke-width:0.13;stroke-miterlimit:10;}
	.st7{stroke:#A1A1A1;stroke-width:0.08;stroke-miterlimit:10;}
	.st8{fill:url(#SVGID_3_);}
	.st9{fill:none;stroke:#A1A1A1;stroke-width:0.9;}
	.st10{stroke:#A1A1A1;stroke-width:0.8;stroke-miterlimit:10;}
	.st11{stroke:#A1A1A1;stroke-width:0.5;stroke-miterlimit:10;}
</style>
<g>
	<g>
		
			<radialGradient id="SVGID_1_" cx="25.3033" cy="25.0754" r="24.6967" gradientTransform="matrix(1.0123 0 0 1.0123 -0.614 -0.3833)" gradientUnits="userSpaceOnUse">
			<stop  offset="0" style="stop-color:#E0FDCA"/>
			<stop  offset="3.449129e-03" style="stop-color:#DCFBC6"/>
			<stop  offset="0.0322" style="stop-color:#BCEFAD"/>
			<stop  offset="0.0643" style="stop-color:#A1E497"/>
			<stop  offset="0.101" style="stop-color:#8BDB85"/>
			<stop  offset="0.1439" style="stop-color:#7AD477"/>
			<stop  offset="0.1969" style="stop-color:#6FCF6D"/>
			<stop  offset="0.2712" style="stop-color:#68CD68"/>
			<stop  offset="0.4777" style="stop-color:#66CC66"/>
			<stop  offset="0.5278" style="stop-color:#64C863"/>
			<stop  offset="0.5802" style="stop-color:#5EBB58"/>
			<stop  offset="0.6335" style="stop-color:#53A647"/>
			<stop  offset="0.6874" style="stop-color:#44892F"/>
			<stop  offset="0.7414" style="stop-color:#326410"/>
			<stop  offset="0.7654" style="stop-color:#285100"/>
			<stop  offset="0.8073" style="stop-color:#295502"/>
			<stop  offset="0.8468" style="stop-color:#2D6008"/>
			<stop  offset="0.8854" style="stop-color:#337313"/>
			<stop  offset="0.9234" style="stop-color:#3C8E22"/>
			<stop  offset="0.9609" style="stop-color:#47B035"/>
			<stop  offset="0.9977" style="stop-color:#55DA4B"/>
			<stop  offset="1" style="stop-color:#56DD4D"/>
			<stop  offset="1" style="stop-color:#54E049"/>
		</radialGradient>
		<path class="st0" d="M47.41,13.04c-0.66,0.27-0.47,1.51-0.47,1.51c0.11,0.72-0.39,1.45-1.1,1.61l-4.78,0.94
			c-0.72,0.12-1.62-0.3-1.99-0.93l-0.86-1.29c-0.44-0.58-0.5-1.49-0.13-2.02c0.37-0.53,2.02-1.75,2.64-1.36c0,0,0.74,0.46,1.17,0.03
			c0.44-0.44,0.09-1.51-0.78-2.4c-0.88-0.89-1.95-1.26-2.39-0.82c-0.43,0.42,0.02,1.17,0.02,1.17c0.38,0.63,0.21,1.48-0.37,1.89
			c-0.58,0.41-2.43,0.98-2.98,0.5l-1.65-1.24c-0.61-0.4-1.01-1.31-0.88-2.03l0.93-4.48c0.17-0.71,0.38-1.26,0.46-1.21
			c0,0,0,0,0.09,0.04c1.35,0.57,2.68,0.49,2.97-0.19c0.29-0.68-0.58-1.69-1.93-2.26c-1.35-0.57-2.68-0.49-2.97,0.19
			c-0.24,0.57,0.34,1.08,0.34,1.08c0.55,0.48,0.7,1.39,0.32,2.02l-2.39,3.82c-0.41,0.61-1.32,0.95-2.02,0.76l-1.88-0.37
			c-0.73-0.09-1.4-0.62-1.5-1.18s-0.28-2.18-0.2-2.17c0,0,0,0,0.08,0c1.25,0.01,2.26-0.49,2.27-1.11c0-0.62-1-1.14-2.25-1.15
			c-1.25-0.01-2.26,0.49-2.27,1.11c0,0.53,0.43,0.67,0.43,0.67c0.69,0.24,1.19,0.93,1.11,1.55s-0.9,2.14-1.63,2.21L21.24,8.2
			c-0.71,0.16-1.63-0.21-2.04-0.81l-2.25-3.54c-0.38-0.63-0.21-1.5,0.38-1.94c0,0,0.91-0.68,0.65-1.32
			c-0.28-0.68-1.6-0.78-2.96-0.23c-1.36,0.55-2.24,1.55-1.97,2.23c0.26,0.64,1.39,0.49,1.39,0.49c0.73-0.09,1.45,0.41,1.62,1.13
			l0.85,4.11c0.13,0.72-0.27,1.62-0.9,2.01l-1.5,1.07c-0.56,0.47-1.4,0.58-1.85,0.25c-0.46-0.33-1.46-1.82-1.09-2.45
			c0,0,0.39-0.66-0.02-1.08c-0.44-0.44-1.51-0.09-2.4,0.78c-0.89,0.88-1.26,1.95-0.82,2.39c0.41,0.42,1.08,0.04,1.08,0.04
			c0.63-0.36,1.45-0.25,1.82,0.26c0.37,0.51,0.86,2.21,0.41,2.79l-0.83,1.23c-0.37,0.63-1.26,1.02-1.97,0.87L4.45,15.4
			c-0.71-0.19-1.23-0.95-1.18-1.68c0,0,0.06-0.77-0.51-1.01c-0.68-0.29-1.69,0.58-2.26,1.93c-0.57,1.35-0.49,2.68,0.19,2.97
			c0.68,0.29,1.69-0.58,2.26-1.93c0.04-0.09,0.04-0.09,0.04-0.09c0.03-0.09,0.56,0.15,1.18,0.55l3.79,2.57
			c0.59,0.43,0.94,1.36,0.78,2.07l-0.29,1.71c-0.07,0.73-0.66,1.4-1.29,1.49c-0.64,0.09-2.72-0.25-2.94-0.95
			c0,0-0.14-0.44-0.67-0.44c-0.62,0-1.14,1-1.15,2.25c-0.01,1.25,0.49,2.26,1.11,2.27c0.62,0,1.14-1,1.15-2.25c0-0.08,0-0.08,0-0.08
			c-0.01-0.08,0.57-0.05,1.28,0.07s2.44,1.05,2.52,1.78l0.32,1.85c0.17,0.71-0.19,1.63-0.79,2.05l-4.09,2.65
			c-0.62,0.38-1.48,0.21-1.91-0.39c0,0-0.73-1.02-1.39-0.75c-0.68,0.28-0.78,1.6-0.23,2.96c0.55,1.36,1.55,2.24,2.23,1.97
			c0.66-0.27,0.47-1.51,0.47-1.51c-0.11-0.72,0.39-1.45,1.1-1.61l4.78-0.94c0.72-0.12,1.62,0.3,1.99,0.93l0.86,1.29
			c0.44,0.58,0.5,1.49,0.13,2.02c-0.37,0.53-2.02,1.75-2.64,1.36c0,0-0.74-0.46-1.17-0.03c-0.44,0.44-0.1,1.51,0.78,2.4
			c0.88,0.89,1.95,1.26,2.39,0.82c0.43-0.42-0.02-1.17-0.02-1.17c-0.38-0.63-0.21-1.48,0.37-1.89c0.58-0.41,2.43-0.98,2.98-0.5
			l1.65,1.24c0.61,0.4,1.01,1.31,0.88,2.03l-0.93,4.48c-0.17,0.71-0.38,1.26-0.46,1.21c0,0,0,0-0.09-0.04
			c-1.35-0.57-2.68-0.49-2.97,0.19c-0.29,0.68,0.58,1.69,1.93,2.26c1.35,0.57,2.68,0.49,2.97-0.19c0.24-0.57-0.34-1.08-0.34-1.08
			c-0.55-0.48-0.7-1.39-0.32-2.02l2.39-3.82c0.41-0.61,1.32-0.95,2.02-0.76l1.88,0.37c0.73,0.09,1.4,0.62,1.5,1.18
			c0.1,0.56,0.28,2.18,0.2,2.17c0,0,0,0-0.08,0c-1.25-0.01-2.26,0.49-2.27,1.11c0,0.62,1,1.14,2.25,1.15
			c1.25,0.01,2.26-0.49,2.27-1.11c0-0.53-0.43-0.67-0.43-0.67c-0.69-0.24-1.19-0.93-1.11-1.55c0.08-0.62,0.9-2.14,1.63-2.21
			l1.57-0.26c0.71-0.16,1.63,0.21,2.04,0.81l2.25,3.54c0.38,0.63,0.21,1.5-0.38,1.94c0,0-0.91,0.68-0.65,1.32
			c0.28,0.68,1.6,0.78,2.96,0.23c1.36-0.55,2.24-1.55,1.97-2.23c-0.26-0.64-1.39-0.49-1.39-0.49c-0.73,0.09-1.45-0.41-1.62-1.13
			l-0.85-4.11c-0.13-0.72,0.27-1.62,0.9-2.01l1.5-1.07c0.56-0.47,1.4-0.58,1.85-0.25c0.46,0.33,1.46,1.82,1.09,2.45
			c0,0-0.39,0.66,0.02,1.08c0.44,0.44,1.51,0.09,2.4-0.78c0.89-0.88,1.26-1.95,0.82-2.39c-0.41-0.42-1.08-0.04-1.08-0.04
			c-0.63,0.36-1.45,0.25-1.82-0.26c-0.37-0.51-0.86-2.21-0.41-2.79l0.83-1.23c0.37-0.63,1.26-1.02,1.97-0.87l4.37,1.08
			c0.71,0.19,1.23,0.95,1.18,1.68c0,0-0.06,0.77,0.51,1.01c0.68,0.29,1.69-0.58,2.26-1.93c0.57-1.35,0.49-2.68-0.19-2.97
			c-0.68-0.29-1.69,0.58-2.26,1.93c-0.04,0.09-0.04,0.09-0.04,0.09c-0.03,0.09-0.56-0.15-1.18-0.55l-3.79-2.57
			c-0.59-0.43-0.94-1.36-0.78-2.07l0.29-1.71c0.07-0.73,0.66-1.4,1.29-1.49c0.64-0.09,2.72,0.25,2.94,0.95c0,0,0.14,0.44,0.67,0.44
			c0.62,0,1.14-1,1.15-2.25c0.01-1.25-0.49-2.26-1.11-2.27c-0.62,0-1.14,1-1.15,2.25c0,0.08,0,0.08,0,0.08
			c0.01,0.08-0.57,0.05-1.28-0.07c-0.71-0.12-2.44-1.05-2.52-1.78l-0.32-1.85c-0.17-0.71,0.19-1.63,0.79-2.05l4.09-2.65
			c0.62-0.38,1.48-0.21,1.91,0.39c0,0,0.73,1.02,1.39,0.75c0.68-0.28,0.78-1.6,0.23-2.96C49.09,13.65,48.09,12.77,47.41,13.04z"/>
		<path class="st1" d="M47.41,13.04c-0.66,0.27-0.47,1.51-0.47,1.51c0.11,0.72-0.39,1.45-1.1,1.61l-4.78,0.94
			c-0.72,0.12-1.62-0.3-1.99-0.93l-0.86-1.29c-0.44-0.58-0.5-1.49-0.13-2.02c0.37-0.53,2.02-1.75,2.64-1.36c0,0,0.74,0.46,1.17,0.03
			c0.44-0.44,0.09-1.51-0.78-2.4c-0.88-0.89-1.95-1.26-2.39-0.82c-0.43,0.42,0.02,1.17,0.02,1.17c0.38,0.63,0.21,1.48-0.37,1.89
			c-0.58,0.41-2.43,0.98-2.98,0.5l-1.65-1.24c-0.61-0.4-1.01-1.31-0.88-2.03l0.93-4.48c0.17-0.71,0.38-1.26,0.46-1.21
			c0,0,0,0,0.09,0.04c1.35,0.57,2.68,0.49,2.97-0.19c0.29-0.68-0.58-1.69-1.93-2.26c-1.35-0.57-2.68-0.49-2.97,0.19
			c-0.24,0.57,0.34,1.08,0.34,1.08c0.55,0.48,0.7,1.39,0.32,2.02l-2.39,3.82c-0.41,0.61-1.32,0.95-2.02,0.76l-1.88-0.37
			c-0.73-0.09-1.4-0.62-1.5-1.18s-0.28-2.18-0.2-2.17c0,0,0,0,0.08,0c1.25,0.01,2.26-0.49,2.27-1.11c0-0.62-1-1.14-2.25-1.15
			c-1.25-0.01-2.26,0.49-2.27,1.11c0,0.53,0.43,0.67,0.43,0.67c0.69,0.24,1.19,0.93,1.11,1.55s-0.9,2.14-1.63,2.21L21.24,8.2
			c-0.71,0.16-1.63-0.21-2.04-0.81l-2.25-3.54c-0.38-0.63-0.21-1.5,0.38-1.94c0,0,0.91-0.68,0.65-1.32
			c-0.28-0.68-1.6-0.78-2.96-0.23c-1.36,0.55-2.24,1.55-1.97,2.23c0.26,0.64,1.39,0.49,1.39,0.49c0.73-0.09,1.45,0.41,1.62,1.13
			l0.85,4.11c0.13,0.72-0.27,1.62-0.9,2.01l-1.5,1.07c-0.56,0.47-1.4,0.58-1.85,0.25c-0.46-0.33-1.46-1.82-1.09-2.45
			c0,0,0.39-0.66-0.02-1.08c-0.44-0.44-1.51-0.09-2.4,0.78c-0.89,0.88-1.26,1.95-0.82,2.39c0.41,0.42,1.08,0.04,1.08,0.04
			c0.63-0.36,1.45-0.25,1.82,0.26c0.37,0.51,0.86,2.21,0.41,2.79l-0.83,1.23c-0.37,0.63-1.26,1.02-1.97,0.87L4.45,15.4
			c-0.71-0.19-1.23-0.95-1.18-1.68c0,0,0.06-0.77-0.51-1.01c-0.68-0.29-1.69,0.58-2.26,1.93c-0.57,1.35-0.49,2.68,0.19,2.97
			c0.68,0.29,1.69-0.58,2.26-1.93c0.04-0.09,0.04-0.09,0.04-0.09c0.03-0.09,0.56,0.15,1.18,0.55l3.79,2.57
			c0.59,0.43,0.94,1.36,0.78,2.07l-0.29,1.71c-0.07,0.73-0.66,1.4-1.29,1.49c-0.64,0.09-2.72-0.25-2.94-0.95
			c0,0-0.14-0.44-0.67-0.44c-0.62,0-1.14,1-1.15,2.25c-0.01,1.25,0.49,2.26,1.11,2.27c0.62,0,1.14-1,1.15-2.25c0-0.08,0-0.08,0-0.08
			c-0.01-0.08,0.57-0.05,1.28,0.07s2.44,1.05,2.52,1.78l0.32,1.85c0.17,0.71-0.19,1.63-0.79,2.05l-4.09,2.65
			c-0.62,0.38-1.48,0.21-1.91-0.39c0,0-0.73-1.02-1.39-0.75c-0.68,0.28-0.78,1.6-0.23,2.96c0.55,1.36,1.55,2.24,2.23,1.97
			c0.66-0.27,0.47-1.51,0.47-1.51c-0.11-0.72,0.39-1.45,1.1-1.61l4.78-0.94c0.72-0.12,1.62,0.3,1.99,0.93l0.86,1.29
			c0.44,0.58,0.5,1.49,0.13,2.02c-0.37,0.53-2.02,1.75-2.64,1.36c0,0-0.74-0.46-1.17-0.03c-0.44,0.44-0.1,1.51,0.78,2.4
			c0.88,0.89,1.95,1.26,2.39,0.82c0.43-0.42-0.02-1.17-0.02-1.17c-0.38-0.63-0.21-1.48,0.37-1.89c0.58-0.41,2.43-0.98,2.98-0.5
			l1.65,1.24c0.61,0.4,1.01,1.31,0.88,2.03l-0.93,4.48c-0.17,0.71-0.38,1.26-0.46,1.21c0,0,0,0-0.09-0.04
			c-1.35-0.57-2.68-0.49-2.97,0.19c-0.29,0.68,0.58,1.69,1.93,2.26c1.35,0.57,2.68,0.49,2.97-0.19c0.24-0.57-0.34-1.08-0.34-1.08
			c-0.55-0.48-0.7-1.39-0.32-2.02l2.39-3.82c0.41-0.61,1.32-0.95,2.02-0.76l1.88,0.37c0.73,0.09,1.4,0.62,1.5,1.18
			c0.1,0.56,0.28,2.18,0.2,2.17c0,0,0,0-0.08,0c-1.25-0.01-2.26,0.49-2.27,1.11c0,0.62,1,1.14,2.25,1.15
			c1.25,0.01,2.26-0.49,2.27-1.11c0-0.53-0.43-0.67-0.43-0.67c-0.69-0.24-1.19-0.93-1.11-1.55c0.08-0.62,0.9-2.14,1.63-2.21
			l1.57-0.26c0.71-0.16,1.63,0.21,2.04,0.81l2.25,3.54c0.38,0.63,0.21,1.5-0.38,1.94c0,0-0.91,0.68-0.65,1.32
			c0.28,0.68,1.6,0.78,2.96,0.23c1.36-0.55,2.24-1.55,1.97-2.23c-0.26-0.64-1.39-0.49-1.39-0.49c-0.73,0.09-1.45-0.41-1.62-1.13
			l-0.85-4.11c-0.13-0.72,0.27-1.62,0.9-2.01l1.5-1.07c0.56-0.47,1.4-0.58,1.85-0.25c0.46,0.33,1.46,1.82,1.09,2.45
			c0,0-0.39,0.66,0.02,1.08c0.44,0.44,1.51,0.09,2.4-0.78c0.89-0.88,1.26-1.95,0.82-2.39c-0.41-0.42-1.08-0.04-1.08-0.04
			c-0.63,0.36-1.45,0.25-1.82-0.26c-0.37-0.51-0.86-2.21-0.41-2.79l0.83-1.23c0.37-0.63,1.26-1.02,1.97-0.87l4.37,1.08
			c0.71,0.19,1.23,0.95,1.18,1.68c0,0-0.06,0.77,0.51,1.01c0.68,0.29,1.69-0.58,2.26-1.93c0.57-1.35,0.49-2.68-0.19-2.97
			c-0.68-0.29-1.69,0.58-2.26,1.93c-0.04,0.09-0.04,0.09-0.04,0.09c-0.03,0.09-0.56-0.15-1.18-0.55l-3.79-2.57
			c-0.59-0.43-0.94-1.36-0.78-2.07l0.29-1.71c0.07-0.73,0.66-1.4,1.29-1.49c0.64-0.09,2.72,0.25,2.94,0.95c0,0,0.14,0.44,0.67,0.44
			c0.62,0,1.14-1,1.15-2.25c0.01-1.25-0.49-2.26-1.11-2.27c-0.62,0-1.14,1-1.15,2.25c0,0.08,0,0.08,0,0.08
			c0.01,0.08-0.57,0.05-1.28-0.07c-0.71-0.12-2.44-1.05-2.52-1.78l-0.32-1.85c-0.17-0.71,0.19-1.63,0.79-2.05l4.09-2.65
			c0.62-0.38,1.48-0.21,1.91,0.39c0,0,0.73,1.02,1.39,0.75c0.68-0.28,0.78-1.6,0.23-2.96C49.09,13.65,48.09,12.77,47.41,13.04z"/>
	</g>
	<g>
		<path class="st2" d="M11.53,24.25c-0.24,0-0.45-0.09-0.62-0.26c-0.17-0.17-0.26-0.38-0.26-0.62v-3.17c0-0.24,0.09-0.45,0.26-0.62
			c0.17-0.17,0.38-0.26,0.62-0.26h2.53c0.24,0,0.45,0.09,0.62,0.26c0.17,0.17,0.26,0.38,0.26,0.62v0.87h-1.2v-0.63h-1.87v2.69h1.87
			v-0.63h1.2v0.87c0,0.24-0.09,0.45-0.26,0.62c-0.17,0.17-0.38,0.26-0.62,0.26H11.53z"/>
		<path class="st2" d="M17.12,24.25c-0.24,0-0.45-0.09-0.62-0.26c-0.17-0.17-0.26-0.38-0.26-0.62v-3.17c0-0.24,0.09-0.45,0.26-0.62
			c0.17-0.17,0.38-0.26,0.62-0.26h2.53c0.24,0,0.45,0.09,0.62,0.26c0.17,0.17,0.26,0.38,0.26,0.62v3.17c0,0.24-0.09,0.45-0.26,0.62
			c-0.17,0.17-0.38,0.26-0.62,0.26H17.12z M19.32,23.14v-2.69h-1.87v2.69H19.32z"/>
		<polygon class="st2" points="23.29,24.25 21.46,19.34 22.79,19.34 24.07,22.94 25.35,19.34 26.68,19.34 24.8,24.25 		"/>
		<rect x="27.65" y="19.34" class="st2" width="1.2" height="4.91"/>
		<path class="st2" d="M30.49,24.25v-3.51l0.29-0.29h-0.29v-1.11h3.4c0.23,0,0.44,0.09,0.61,0.26c0.17,0.17,0.26,0.38,0.26,0.61
			v3.17c0,0.23-0.09,0.44-0.26,0.61s-0.38,0.26-0.61,0.26H30.49z M31.69,23.34l0.2-0.2h1.67v-2.69h-1.87V23.34z"/>
		<path class="st2" d="M36.17,24.25v-1.11h2.44v-0.79h-1.57c-0.24,0-0.45-0.09-0.62-0.26c-0.17-0.17-0.25-0.38-0.25-0.62v-1.27
			c0-0.24,0.08-0.45,0.25-0.62c0.17-0.17,0.38-0.26,0.62-0.26h2.77v1.11h-2.44v0.79h1.57c0.24,0,0.44,0.09,0.62,0.25
			c0.17,0.17,0.26,0.38,0.26,0.62v1.27c0,0.24-0.08,0.45-0.25,0.62c-0.17,0.17-0.38,0.26-0.62,0.26H36.17z"/>
	</g>
	<g>
		<path class="st3" d="M12.01,29.07h-0.86v-3.54h0.86V29.07z"/>
		<path class="st3" d="M18.51,29.06h-0.86V26.4l0.32-0.36h-0.48l-1.31,2.02h-0.62l-1.27-2.02H13.8l0.32,0.36v2.66h-0.86v-3.54h1.53
			l1.06,1.69h0.11l1.06-1.69h1.49V29.06z"/>
		<path class="st3" d="M24.26,27.55c0,0.13-0.08,0.25-0.22,0.35c-0.15,0.1-0.32,0.15-0.52,0.15h-2.89v1.01h-0.86v-2.53l0.75-0.51
			h-0.75v-0.51h3.74c0.2,0,0.37,0.05,0.52,0.15c0.15,0.1,0.22,0.22,0.22,0.35V27.55z M23.4,27.55v-1.52h-2.78v1.95l0.64-0.43H23.4z"
			/>
		<path class="st3" d="M29.85,29.07H29v-1.01h-2.78v1.01h-0.86v-3.04c0-0.14,0.07-0.26,0.22-0.36c0.15-0.1,0.32-0.15,0.53-0.15h3.74
			V29.07z M29,27.55v-1.52h-2.78v1.95l0.64-0.43H29z"/>
		<path class="st3" d="M35.55,28.56c0,0.14-0.07,0.26-0.22,0.36c-0.15,0.1-0.32,0.15-0.53,0.15h-2.99c-0.21,0-0.38-0.05-0.53-0.15
			s-0.22-0.22-0.22-0.36v-2.53c0-0.14,0.07-0.26,0.22-0.36s0.32-0.15,0.53-0.15h2.99c0.21,0,0.38,0.05,0.53,0.15
			c0.15,0.1,0.22,0.22,0.22,0.36v0.51h-0.86v-0.51h-2.78v2.53h2.78v-0.51h0.86V28.56z"/>
		<path class="st3" d="M39.54,26.03h-1.55v3.04h-0.86v-3.04h-1.55v-0.51h3.96V26.03z"/>
	</g>
</g>
</svg>
